<?xml version="1.0" encoding="UTF-8"?>
<svg width="78px" height="47px" viewBox="0 0 78 47" version="1.1" xmlns="http://www.w3.org/2000/svg" xmlns:xlink="http://www.w3.org/1999/xlink">
    <!-- Generator: Sketch 42 (36781) - http://www.bohemiancoding.com/sketch -->
    <title>noun_650441_cc</title>
    <desc>Created with Sketch.</desc>
    <defs></defs>
    <g id="Page-1" stroke="none" stroke-width="1" fill="none" fill-rule="evenodd">
        <g id="Artboard" fill-rule="nonzero" fill="#000000">
            <g id="noun_650441_cc">
                <g id="Group">
                    <g>
                        <g>
                            <path d="M35.054,32.904 C34.928,32.904 34.802,32.893 34.675,32.871 C34.213,32.789 33.905,32.348 33.987,31.885 C34.069,31.423 34.512,31.116 34.973,31.197 C35.138,31.226 35.304,31.169 35.412,31.042 C35.536,30.895 35.535,30.709 35.491,30.585 C35.237,29.86 35.387,29.048 35.883,28.465 C36.382,27.877 37.163,27.601 37.918,27.738 C38.041,27.759 38.224,27.732 38.353,27.581 C38.479,27.434 38.477,27.248 38.434,27.124 C38.279,26.682 38.511,26.196 38.955,26.041 C39.393,25.884 39.884,26.118 40.038,26.562 C40.293,27.287 40.143,28.099 39.649,28.682 C39.152,29.266 38.373,29.545 37.616,29.411 C37.455,29.385 37.286,29.439 37.178,29.566 C37.052,29.714 37.053,29.898 37.096,30.021 C37.35,30.747 37.201,31.559 36.707,32.142 C36.293,32.63 35.684,32.904 35.054,32.904 Z" id="Shape"></path>
                            <path d="M66.645,44.984 C66.229,44.984 65.866,44.678 65.805,44.255 C65.786,44.127 65.701,43.963 65.519,43.889 C65.342,43.817 65.164,43.877 65.058,43.958 C64.45,44.428 63.632,44.541 62.923,44.253 C62.211,43.968 61.699,43.315 61.593,42.552 C61.575,42.428 61.49,42.265 61.307,42.191 C61.126,42.116 60.952,42.176 60.849,42.258 C60.477,42.546 59.944,42.478 59.656,42.108 C59.369,41.737 59.436,41.203 59.806,40.915 C60.415,40.442 61.235,40.329 61.945,40.615 C62.657,40.903 63.167,41.553 63.276,42.313 C63.299,42.481 63.406,42.616 63.56,42.677 C63.743,42.75 63.917,42.691 64.022,42.612 C64.632,42.144 65.451,42.03 66.157,42.313 C66.869,42.603 67.378,43.253 67.487,44.013 C67.554,44.477 67.232,44.909 66.767,44.975 C66.726,44.981 66.685,44.984 66.645,44.984 Z" id="Shape"></path>
                            <path d="M76.242,14.863 C75.585,14.863 74.954,14.563 74.544,14.041 C74.072,13.448 73.949,12.631 74.227,11.913 C74.278,11.786 74.285,11.607 74.165,11.457 C74.039,11.298 73.856,11.265 73.732,11.281 C72.963,11.385 72.199,11.082 71.726,10.482 C71.251,9.882 71.131,9.065 71.413,8.351 C71.583,7.913 72.08,7.7 72.515,7.871 C72.953,8.042 73.167,8.536 72.995,8.973 C72.948,9.094 72.94,9.277 73.06,9.431 C73.162,9.56 73.314,9.624 73.495,9.599 C74.252,9.491 75.024,9.799 75.497,10.403 C75.975,10.998 76.098,11.818 75.809,12.537 C75.765,12.65 75.757,12.837 75.878,12.989 C76.001,13.146 76.185,13.179 76.309,13.161 C76.777,13.084 77.205,13.416 77.271,13.881 C77.338,14.346 77.016,14.777 76.551,14.843 C76.448,14.856 76.345,14.863 76.242,14.863 Z" id="Shape"></path>
                            <path d="M7.027,45.49 C7.013,45.49 7,45.49 6.986,45.489 C6.517,45.467 6.155,45.069 6.177,44.599 C6.185,44.432 6.106,44.277 5.966,44.186 C5.806,44.083 5.624,44.108 5.508,44.165 C4.814,44.514 3.989,44.47 3.349,44.052 C2.703,43.64 2.323,42.902 2.365,42.13 C2.37,42.008 2.317,41.828 2.154,41.723 C1.989,41.617 1.809,41.642 1.694,41.702 C1.275,41.916 0.764,41.751 0.55,41.333 C0.336,40.915 0.501,40.402 0.919,40.188 C1.605,39.838 2.431,39.878 3.078,40.295 C3.718,40.709 4.096,41.443 4.064,42.211 C4.055,42.382 4.135,42.536 4.272,42.623 C4.441,42.732 4.625,42.707 4.743,42.648 C5.425,42.301 6.25,42.343 6.892,42.758 C7.537,43.177 7.914,43.912 7.877,44.68 C7.854,45.137 7.478,45.49 7.027,45.49 Z" id="Shape"></path>
                            <path d="M1.788,7.048 C1.413,7.048 1.069,6.798 0.968,6.418 C0.768,5.673 0.98,4.873 1.522,4.33 C2.061,3.788 2.858,3.572 3.603,3.762 C3.732,3.798 3.913,3.782 4.048,3.645 C4.19,3.503 4.202,3.32 4.169,3.193 C3.973,2.448 4.186,1.65 4.724,1.109 C5.264,0.567 6.062,0.351 6.806,0.543 C7.261,0.661 7.533,1.125 7.415,1.579 C7.297,2.034 6.83,2.306 6.379,2.188 C6.25,2.155 6.067,2.168 5.929,2.308 C5.813,2.425 5.769,2.594 5.813,2.759 C6.01,3.502 5.796,4.3 5.255,4.841 C4.719,5.386 3.919,5.604 3.172,5.406 C3.05,5.375 2.866,5.389 2.727,5.529 C2.589,5.668 2.577,5.851 2.61,5.977 C2.732,6.43 2.463,6.896 2.009,7.018 C1.935,7.039 1.86,7.048 1.788,7.048 Z" id="Shape"></path>
                            <circle id="Oval" cx="29.258" cy="37.752" r="1.514"></circle>
                            <circle id="Oval" cx="37.093" cy="15.241" r="1.514"></circle>
                            <circle id="Oval" cx="66.028" cy="21.392" r="1.514"></circle>
                            <circle id="Oval" cx="51.026" cy="34.393" r="1.514"></circle>
                            <circle id="Oval" cx="11.023" cy="22.392" r="1.514"></circle>
                        </g>
                        <path d="M47.031,46.456 L47.031,46.456 C46.936,46.456 46.842,46.451 46.745,46.442 C45.985,46.367 45.299,46.001 44.814,45.409 C44.328,44.817 44.103,44.071 44.179,43.309 C44.206,43.035 44.453,42.847 44.725,42.861 L49.43,43.327 C49.563,43.341 49.684,43.405 49.768,43.509 C49.852,43.612 49.892,43.743 49.878,43.875 C49.732,45.347 48.508,46.456 47.031,46.456 Z M45.191,43.913 C45.245,44.226 45.379,44.522 45.587,44.775 C45.902,45.16 46.348,45.398 46.843,45.446 C47.721,45.542 48.474,45.024 48.767,44.266 L45.191,43.913 Z" id="Shape"></path>
                        <path d="M69.58,37.284 L69.58,37.284 C69.293,37.284 69.008,37.241 68.731,37.155 C68.467,37.073 68.32,36.794 68.402,36.53 L69.798,32.012 C69.837,31.885 69.925,31.779 70.042,31.717 C70.159,31.655 70.297,31.644 70.424,31.682 C71.931,32.15 72.779,33.757 72.314,35.265 C71.942,36.473 70.844,37.284 69.58,37.284 Z M69.525,36.283 C69.543,36.284 69.561,36.284 69.58,36.284 C70.401,36.284 71.116,35.757 71.358,34.971 C71.61,34.155 71.27,33.293 70.585,32.852 L69.525,36.283 Z" id="Shape"></path>
                        <path d="M18.165,35.893 C18.066,35.893 17.965,35.864 17.878,35.802 L14.009,33.084 C13.901,33.008 13.827,32.892 13.804,32.761 C13.782,32.63 13.811,32.495 13.888,32.387 C14.763,31.142 16.629,30.813 17.879,31.692 C18.504,32.13 18.921,32.786 19.053,33.539 C19.185,34.294 19.015,35.055 18.574,35.682 C18.477,35.818 18.322,35.893 18.165,35.893 Z M15.049,32.593 L17.988,34.657 C18.095,34.357 18.124,34.033 18.067,33.711 C17.981,33.222 17.71,32.795 17.303,32.51 C16.629,32.037 15.67,32.086 15.049,32.593 Z" id="Shape"></path>
                        <path d="M18.395,10.214 L18.395,10.214 C17.442,10.214 16.554,9.743 16.021,8.956 C15.866,8.727 15.926,8.416 16.155,8.262 L20.07,5.61 C20.179,5.536 20.316,5.507 20.445,5.533 C20.575,5.558 20.69,5.634 20.764,5.744 C21.649,7.053 21.305,8.837 19.997,9.721 C19.523,10.044 18.968,10.214 18.395,10.214 Z M17.186,8.771 C17.794,9.288 18.755,9.356 19.436,8.894 C20.144,8.415 20.419,7.531 20.16,6.757 L17.186,8.771 Z" id="Shape"></path>
                        <path d="M47.835,6.886 L47.835,6.886 C46.963,6.886 46.149,6.497 45.603,5.82 C45.124,5.227 44.903,4.481 44.984,3.72 C45.066,2.958 45.439,2.274 46.036,1.793 C46.252,1.621 46.565,1.654 46.738,1.869 L49.707,5.549 C49.791,5.652 49.83,5.784 49.815,5.916 C49.801,6.048 49.735,6.169 49.631,6.252 C49.123,6.661 48.485,6.886 47.835,6.886 Z M46.315,2.938 C46.129,3.197 46.012,3.5 45.978,3.826 C45.925,4.321 46.068,4.805 46.38,5.191 C46.736,5.633 47.266,5.886 47.834,5.886 L47.834,5.886 C48.092,5.886 48.341,5.834 48.571,5.735 L46.315,2.938 Z" id="Shape"></path>
                    </g>
                </g>
            </g>
        </g>
    </g>
</svg>